<svg width="301" height="75" viewBox="0 0 301 75" fill="none" xmlns="http://www.w3.org/2000/svg">
<path d="M77.4128 27.8143C82.8022 27.8143 87.0917 29.5743 90.2815 33.094C93.5263 36.5585 95.1487 41.3431 95.1487 47.4475V74.3401H81.1249V49.345C81.1249 46.2652 80.3275 43.8729 78.7326 42.1681C77.1378 40.4632 74.993 39.6107 72.2983 39.6107C69.6034 39.6107 67.4586 40.4632 65.8638 42.1681C64.2689 43.8729 63.4715 46.2652 63.4715 49.345V74.3401H49.3652V28.3094H63.4715V34.4137C64.9015 32.3789 66.8263 30.7841 69.2459 29.6292C71.6657 28.4193 74.388 27.8143 77.4128 27.8143Z" fill="black"/>
<path d="M124.832 61.1413L134.813 28.3093H149.827L133.493 74.3401H116.088L99.7539 28.3093H114.85L124.832 61.1413Z" fill="black"/>
<path d="M162.034 23.5247C159.559 23.5247 157.524 22.8097 155.93 21.38C154.39 19.8951 153.62 18.0803 153.62 15.9355C153.62 13.7356 154.39 11.9207 155.93 10.4909C157.524 9.00599 159.559 8.26355 162.034 8.26355C164.454 8.26355 166.434 9.00599 167.973 10.4909C169.568 11.9207 170.366 13.7356 170.366 15.9355C170.366 18.0803 169.568 19.8951 167.973 21.38C166.434 22.8097 164.454 23.5247 162.034 23.5247ZM169.046 28.3093V74.3401H154.94V28.3093H169.046Z" fill="black"/>
<path d="M204.099 62.3785V74.34H196.922C191.808 74.34 187.82 73.1026 184.961 70.6279C182.101 68.0981 180.671 64.0009 180.671 58.3365V40.0232H175.062V28.3092H180.671V17.0901H194.777V28.3092H204.016V40.0232H194.777V58.5014C194.777 59.8763 195.107 60.8661 195.767 61.4711C196.427 62.0761 197.527 62.3785 199.067 62.3785H204.099Z" fill="black"/>
<path d="M254.522 50.5824C254.522 51.9022 254.44 53.2771 254.274 54.7071H222.35C222.57 57.5666 223.477 59.7665 225.072 61.3065C226.722 62.7911 228.729 63.5337 231.094 63.5337C234.613 63.5337 237.062 62.0488 238.435 59.079H253.45C252.679 62.1039 251.278 64.8261 249.242 67.2457C247.262 69.6656 244.761 71.5628 241.735 72.9377C238.711 74.3126 235.33 75.0001 231.589 75.0001C227.079 75.0001 223.065 74.0378 219.545 72.1128C216.025 70.188 213.276 67.4384 211.296 63.8636C209.316 60.2888 208.326 56.1093 208.326 51.3247C208.326 46.5401 209.289 42.3605 211.214 38.786C213.193 35.2112 215.943 32.4614 219.463 30.5366C222.982 28.6118 227.025 27.6493 231.589 27.6493C236.044 27.6493 240.004 28.5843 243.467 30.4542C246.933 32.3239 249.627 34.9913 251.551 38.4558C253.531 41.9206 254.522 45.9626 254.522 50.5824ZM240.086 46.8701C240.086 44.4504 239.262 42.5256 237.611 41.0956C235.96 39.6659 233.898 38.9509 231.424 38.9509C229.059 38.9509 227.052 39.6383 225.402 41.0132C223.807 42.3881 222.817 44.3405 222.432 46.8701H240.086Z" fill="black"/>
<path d="M40.215 16.5966H0V30.0016H40.215V16.5966Z" fill="#F5B118"/>
<path d="M40.215 60.9351H0V74.3401H40.215V60.9351Z" fill="#FF707A"/>
<path d="M30.9347 38.2502H0V51.6553H30.9347V38.2502Z" fill="#00AEDC"/>
<path d="M245.754 9.58317C246.949 9.82602 247.911 10.3958 248.64 11.2925C249.387 12.1891 249.761 13.2352 249.761 14.4308C249.761 16.0747 249.21 17.3823 248.107 18.3537C247.005 19.3065 245.408 19.7828 243.316 19.7828H235.442V0H243.176C245.156 0 246.669 0.448336 247.715 1.34501C248.78 2.223 249.312 3.43724 249.312 4.98773C249.312 6.23934 248.985 7.25743 248.332 8.04202C247.678 8.80793 246.818 9.32165 245.754 9.58317ZM238.636 8.51838H242.587C243.708 8.51838 244.558 8.25685 245.137 7.73379C245.735 7.21073 246.034 6.48219 246.034 5.54815C246.034 4.6328 245.735 3.9136 245.137 3.39054C244.558 2.86748 243.671 2.60595 242.475 2.60595H238.636V8.51838ZM242.671 17.1488C243.886 17.1488 244.82 16.878 245.473 16.3362C246.146 15.7758 246.482 15.0006 246.482 14.0105C246.482 13.0204 246.146 12.2452 245.473 11.6847C244.801 11.1243 243.858 10.8441 242.643 10.8441H238.636V17.1488H242.671ZM256.518 2.57793V8.57442H263.804V11.0403H256.518V17.1769H264.644V19.7828H253.324V0H264.644V2.57793H256.518ZM281.027 0V2.57793H275.507V19.7828H272.285V2.57793H266.793V0H281.027ZM295.766 15.4956H287.416L285.903 19.7828H282.484L289.77 0.308231H293.441L300.698 19.7828H297.28L295.766 15.4956ZM294.87 13.0298L291.591 3.78283L288.313 13.0298H294.87Z" fill="black"/>
</svg>
